<?xml version="1.0" standalone="no"?>
<!DOCTYPE svg PUBLIC "-//W3C//DTD SVG 20010904//EN"
 "http://www.w3.org/TR/2001/REC-SVG-20010904/DTD/svg10.dtd">
<svg version="1.0" xmlns="http://www.w3.org/2000/svg"
 width="310.000000pt" height="310.000000pt" viewBox="0 0 310.000000 310.000000"
 preserveAspectRatio="xMidYMid meet">
<metadata>
99Corporates.com
</metadata>
<g transform="translate(0.000000,310.000000) scale(0.100000,-0.100000)"
fill="#000000" stroke="none">
<path d="M1484 3052 c4 -8 -6 -11 -31 -9 -21 1 -44 -2 -52 -7 -10 -7 -12 -5
-6 3 6 10 3 11 -13 2 -10 -6 -29 -8 -41 -6 -11 2 -21 -1 -21 -7 0 -7 -6 -6
-15 2 -9 8 -15 9 -15 2 0 -6 -9 -9 -20 -7 -11 2 -20 1 -20 -3 0 -8 -24 -13
-72 -15 -16 0 -28 -5 -28 -10 0 -5 -9 -7 -20 -4 -14 4 -20 0 -20 -11 0 -12 -3
-13 -11 -5 -8 8 -20 6 -46 -8 -19 -11 -32 -15 -29 -10 4 5 -11 1 -31 -9 -21
-10 -41 -16 -45 -13 -5 2 -8 -1 -8 -7 0 -6 -4 -9 -9 -5 -6 3 -14 -3 -20 -12
-8 -14 -10 -15 -11 -3 0 10 -3 11 -8 4 -8 -12 -43 -28 -54 -26 -5 1 -8 -2 -8
-8 0 -5 -4 -10 -10 -10 -5 0 -33 -14 -62 -31 -29 -18 -58 -32 -65 -32 -7 0
-11 -3 -9 -6 2 -3 -8 -15 -22 -25 -15 -12 -22 -14 -17 -5 4 8 -6 1 -22 -16
-16 -16 -35 -31 -41 -33 -7 -1 -29 -18 -48 -37 -19 -19 -39 -35 -45 -35 -6 0
-7 -4 -4 -10 3 -5 2 -10 -4 -10 -6 0 -35 -25 -65 -55 -30 -30 -52 -55 -50 -55
2 0 -4 -9 -13 -19 -9 -11 -21 -17 -26 -14 -6 3 -7 1 -3 -6 4 -6 0 -14 -8 -17
-9 -3 -13 -10 -10 -15 3 -5 0 -9 -6 -9 -6 0 -9 -4 -6 -9 3 -5 -1 -11 -9 -15
-8 -3 -15 -13 -15 -21 0 -9 -4 -13 -10 -10 -5 3 -10 0 -10 -8 0 -8 -9 -24 -20
-37 -11 -12 -17 -26 -15 -30 3 -4 -2 -10 -10 -14 -8 -3 -15 -12 -15 -21 0 -8
-5 -15 -11 -15 -6 0 -9 -6 -7 -12 3 -7 -3 -21 -13 -31 -10 -11 -15 -25 -12
-33 3 -8 0 -14 -5 -14 -11 0 -24 -29 -19 -42 1 -4 -7 -14 -18 -23 -20 -16 -20
-17 0 -10 18 6 18 4 -3 -18 -12 -13 -19 -27 -15 -30 3 -4 0 -7 -8 -7 -12 0
-12 -2 1 -10 12 -8 12 -10 -2 -15 -10 -4 -14 -14 -10 -27 3 -14 1 -19 -6 -14
-7 4 -9 -2 -6 -19 2 -14 0 -25 -5 -25 -5 0 -8 -11 -7 -25 2 -13 -1 -22 -6 -19
-5 3 -7 -6 -4 -20 3 -14 0 -26 -5 -26 -5 0 -9 -7 -9 -16 0 -9 5 -13 13 -9 6 4
3 -1 -7 -9 -11 -9 -16 -16 -12 -16 5 0 2 -8 -5 -17 -10 -11 -10 -14 -1 -9 7 4
12 1 12 -9 0 -9 -4 -14 -8 -11 -5 3 -9 -1 -9 -9 0 -8 4 -12 9 -9 4 3 8 0 8 -5
0 -6 -4 -11 -10 -11 -12 0 -11 -289 2 -312 6 -13 5 -18 -4 -18 -9 0 -9 -3 2
-10 8 -5 11 -12 8 -16 -4 -4 -3 -16 3 -27 7 -12 7 -17 1 -13 -11 6 2 -41 20
-78 5 -10 6 -16 0 -12 -5 3 -9 -1 -9 -9 0 -8 4 -12 9 -9 4 3 8 -5 8 -18 0 -13
8 -34 17 -47 10 -16 12 -21 3 -16 -10 6 -12 4 -6 -11 5 -10 9 -24 9 -31 0 -7
4 -10 8 -8 9 6 21 -43 13 -56 -3 -6 4 -13 16 -16 16 -4 18 -8 9 -14 -11 -6
-10 -9 3 -14 10 -4 14 -14 11 -26 -3 -10 -1 -19 5 -19 5 0 13 -11 16 -25 4
-16 11 -23 18 -19 7 5 9 2 5 -8 -3 -9 2 -24 11 -35 9 -10 18 -25 20 -33 2 -8
9 -18 15 -22 7 -4 8 -8 2 -8 -5 0 -2 -5 8 -11 10 -6 22 -20 28 -32 17 -41 35
-65 109 -147 22 -25 40 -49 40 -53 0 -5 4 -5 10 -2 5 3 10 -1 10 -9 0 -9 6
-16 14 -16 8 0 18 -9 21 -21 4 -11 9 -18 12 -15 3 2 18 -8 33 -24 15 -16 31
-26 34 -23 3 4 6 -2 6 -12 0 -10 3 -16 6 -12 3 3 15 -3 27 -14 11 -10 27 -19
34 -19 8 0 11 -4 8 -10 -3 -5 1 -10 9 -10 9 0 16 -5 16 -11 0 -5 5 -7 10 -4 6
3 10 3 10 -2 0 -4 12 -17 27 -27 17 -13 24 -14 19 -5 -4 8 -1 6 7 -3 8 -10 17
-15 20 -11 4 3 7 1 7 -5 0 -7 5 -12 11 -12 6 0 17 -7 26 -15 8 -8 19 -13 24
-10 5 4 9 1 9 -5 0 -7 7 -10 15 -6 8 3 15 1 15 -4 0 -5 11 -12 25 -16 14 -3
25 -9 25 -13 0 -4 10 -7 22 -8 11 -1 24 -6 27 -11 5 -7 41 -20 71 -26 3 -1 11
-5 17 -9 7 -5 13 -5 13 0 0 4 5 1 10 -7 7 -11 10 -11 10 -2 0 7 5 10 10 7 6
-4 8 -10 5 -14 -2 -5 9 -7 26 -5 20 3 28 0 23 -7 -4 -7 1 -9 12 -7 11 3 32 -2
48 -10 20 -10 26 -10 21 -1 -6 8 -4 10 6 3 14 -9 40 -13 96 -17 18 -1 33 -5
33 -9 0 -5 5 -8 11 -8 5 0 7 5 3 11 -4 8 -1 8 13 1 25 -14 183 -20 183 -7 0 7
3 7 8 0 8 -11 42 -16 42 -6 0 4 19 6 42 4 25 -1 46 3 50 10 6 9 8 8 8 -2 0 -9
4 -10 13 -5 6 5 27 9 45 9 17 0 32 2 32 6 0 3 14 5 30 4 17 -1 30 1 30 4 0 4
12 8 26 9 15 1 32 6 38 10 6 5 21 7 34 6 12 0 22 3 22 7 0 5 3 8 8 8 4 -1 9 0
12 1 3 1 13 3 23 5 10 2 26 7 35 11 9 4 22 8 27 9 26 5 75 31 75 40 0 5 5 3
10 -5 8 -13 10 -12 10 3 0 10 4 16 9 13 8 -5 86 29 101 44 3 3 19 12 35 20 17
8 36 21 43 28 8 7 17 10 22 7 4 -3 10 2 14 10 3 8 13 15 21 15 9 0 13 5 10 10
-3 6 1 10 9 10 9 0 16 5 16 10 0 6 6 9 13 8 6 -2 11 3 9 10 -1 8 1 11 6 8 5
-3 28 13 50 35 23 22 42 36 42 32 1 -4 7 3 15 17 8 14 14 21 15 16 0 -9 80 73
80 83 0 3 9 12 20 19 12 7 18 18 14 24 -4 7 -3 8 5 4 6 -4 14 0 18 11 4 10 18
29 32 42 14 14 26 27 26 30 0 3 3 5 7 4 4 -2 5 4 2 12 -4 8 -1 15 5 15 6 0 11
7 11 15 0 8 5 15 10 15 6 0 10 7 10 15 0 9 7 18 15 21 8 4 13 10 10 14 -3 5 1
15 9 23 8 8 12 17 9 21 -3 3 1 8 10 12 9 3 13 12 10 20 -3 8 0 14 7 14 7 0 10
8 7 19 -3 14 -1 18 9 14 9 -3 12 2 9 16 -2 12 1 21 6 21 6 0 7 5 4 10 -3 6 -1
10 4 10 6 0 11 8 11 18 0 10 3 22 8 26 4 4 8 12 8 17 1 5 3 11 4 14 1 3 4 10
5 15 1 6 4 12 5 15 1 3 4 10 5 15 1 6 3 11 5 13 4 5 12 43 13 64 0 12 5 19 11
16 5 -4 7 1 3 10 -4 10 -1 17 6 17 8 0 6 4 -3 10 -8 5 -10 10 -5 10 10 0 13
14 19 77 1 12 5 25 9 29 3 4 2 16 -4 27 -9 15 -8 18 1 12 9 -6 11 0 8 24 -2
17 -1 31 3 31 5 0 4 11 -1 25 -5 14 -6 25 -2 25 5 0 7 102 3 173 -1 5 -7 5
-13 1 -10 -6 -10 -4 0 7 15 16 16 33 1 23 -8 -4 -8 0 0 15 7 12 8 21 2 21 -5
0 -8 14 -7 30 1 17 -1 30 -5 30 -4 0 -5 9 -2 20 3 11 1 20 -3 20 -5 0 -10 16
-11 35 -4 46 -7 59 -14 65 -4 3 -9 16 -10 30 -2 14 -8 28 -14 32 -6 5 -5 8 4
8 8 0 4 8 -10 21 -13 11 -18 18 -11 14 6 -3 12 -1 12 4 0 6 -4 11 -9 11 -5 0
-12 7 -15 16 -4 9 -2 13 5 8 15 -9 -5 29 -27 50 -9 10 -11 16 -4 16 7 0 5 7
-4 16 -9 8 -14 20 -11 25 4 5 1 9 -4 9 -6 0 -11 6 -11 14 0 7 -7 19 -15 26 -8
7 -12 16 -9 21 3 5 1 9 -4 9 -8 0 -38 55 -30 55 3 1 -16 24 -49 59 -12 13 -20
26 -18 28 3 2 -16 26 -40 52 -26 27 -42 52 -39 59 4 7 4 9 0 5 -9 -8 -55 34
-49 45 2 4 -2 7 -9 7 -7 0 -24 14 -37 30 -13 16 -27 27 -32 24 -5 -3 -9 1 -9
9 0 7 -11 20 -25 27 -14 7 -25 17 -25 22 0 4 -7 8 -16 8 -8 0 -12 5 -9 10 6 9
-8 14 -20 8 -2 -2 -12 7 -20 20 -9 12 -22 22 -29 22 -8 0 -17 7 -20 16 -3 8
-10 13 -15 10 -5 -4 -11 -2 -13 3 -1 5 -10 11 -18 13 -20 4 -39 22 -33 31 2 4
1 7 -4 6 -4 -1 -30 8 -58 20 -27 13 -57 24 -65 26 -8 1 -14 8 -12 15 2 8 -3
10 -14 6 -10 -4 -20 -2 -24 4 -4 6 -17 12 -28 13 -12 1 -22 4 -22 8 0 9 -58
27 -102 31 -10 1 -18 6 -18 11 0 4 -6 7 -12 6 -28 -3 -39 1 -32 14 6 9 5 9 -7
0 -11 -9 -20 -8 -39 2 -13 7 -31 10 -39 7 -10 -4 -12 -1 -6 9 7 11 6 12 -6 2
-12 -10 -18 -10 -28 0 -9 9 -14 9 -20 -1 -7 -11 -9 -11 -13 0 -4 9 -23 13 -57
13 -28 0 -51 2 -51 5 0 3 -9 6 -20 7 -11 1 -18 -2 -15 -8 4 -5 -5 -4 -19 2
-19 9 -29 9 -40 0 -10 -9 -16 -9 -21 -1 -4 7 -15 10 -25 7 -9 -2 -25 0 -35 6
-12 7 -16 6 -11 -1z"/>
</g>
</svg>